# xmcd CD database file
#
# Track frame offsets:
#	150
#	20135
#	37856
#	63159
#	88710
#	110962
#	130035
#	147035
#	244299
#	269068
#	305601
#
# Disc length: 4662 seconds
#
# Revision: 1
# Processed by: cddbd v1.5.2PL0 Copyright (c) Steve Scherf et al.
# Submitted via: CDex 1.51
#
DISCID=9f12340b
DTITLE=Gerry Mulligan Concert Jazz Band - Live at the Olympia Paris - CD1
DYEAR=1960
DGENRE=Jazz
TTITLE0=You took advantage of me
TTITLE1=Black nightgown
TTITLE2=Body and soul
TTITLE3=Barbara's theme
TTITLE4=Apple core
TTITLE5=Come rain or come shine
TTITLE6=Out of this world
TTITLE7=Spring is sprung
TTITLE8=My funny valentine
TTITLE9=Bweebida bobbida
TTITLE10=Go home
EXTD=YEAR: 1960
EXTT0=
EXTT1=
EXTT2=
EXTT3=
EXTT4=
EXTT5=
EXTT6=
EXTT7=
EXTT8=
EXTT9=
EXTT10=
PLAYORDER=
